<svg width="64" height="64" viewBox="0 0 64 64" fill="none" xmlns="http://www.w3.org/2000/svg">
  <circle cx="32" cy="32" r="30" fill="#10b981" stroke="#059669" stroke-width="2"/>
  <path d="M32 16c-4 0-8 4-8 8s4 8 8 8 8-4 8-8-4-8-8-8z" fill="white"/>
  <path d="M28 24c0-1 1-2 2-2s2 1 2 2-1 2-2 2-2-1-2-2z" fill="#10b981"/>
  <path d="M36 24c0-1 1-2 2-2s2 1 2 2-1 2-2 2-2-1-2-2z" fill="#10b981"/>
  <path d="M32 20c-2 0-4 2-4 4s2 4 4 4 4-2 4-4-2-4-4-4z" fill="white"/>
  <circle cx="32" cy="32" r="2" fill="white"/>
</svg>


