<svg width="24" height="24" viewBox="0 0 24 24" fill="none" xmlns="http://www.w3.org/2000/svg">
  <circle cx="12" cy="12" r="10" fill="#f97316" stroke="#ea580c" stroke-width="2"/>
  <path d="M8 12c0-1.5 1-2.5 2.5-2.5s2.5 1 2.5 2.5-1 2.5-2.5 2.5S8 13.5 8 12z" fill="white"/>
  <path d="M10 10c0-.5.5-1 1-1s1 .5 1 1-.5 1-1 1-1-.5-1-1z" fill="#f97316"/>
  <path d="M14 10c0-.5.5-1 1-1s1 .5 1 1-.5 1-1 1-1-.5-1-1z" fill="#f97316"/>
  <path d="M12 8c-1 0-2 1-2 2s1 2 2 2 2-1 2-2-1-2-2-2z" fill="white"/>
  <path d="M12 6c-2 0-4 2-4 4s2 4 4 4 4-2 4-4-2-4-4-4z" fill="#f97316"/>
  <circle cx="12" cy="12" r="1" fill="white"/>
</svg>


